<svg width="33" height="32" viewBox="0 0 33 32" fill="none" xmlns="http://www.w3.org/2000/svg">
<path d="M27.3137 20.249L31.5564 16.0063L27.3137 11.7637" stroke="black" stroke-width="2" stroke-linecap="round" stroke-linejoin="round"/>
<path d="M21.6567 16.0063H31.5562" stroke="black" stroke-width="2" stroke-linecap="round" stroke-linejoin="round"/>
<path d="M19.592 26.5563L17.4707 28.6777C17.2746 28.8754 17.0393 29.03 16.78 29.1315C16.5206 29.2331 16.243 29.2793 15.9647 29.2674C15.6865 29.2554 15.4138 29.1854 15.1641 29.0619C14.9145 28.9385 14.6934 28.7642 14.515 28.5504C12.5755 26.1381 11.229 23.3045 10.5835 20.2772C9.96064 17.4831 9.96064 14.5861 10.5835 11.792C11.2332 8.75223 12.5897 5.90829 14.5433 3.49052C14.7211 3.27731 14.9415 3.10348 15.1902 2.98008C15.4389 2.85668 15.7106 2.78643 15.988 2.77379C16.2654 2.76115 16.5423 2.80641 16.8013 2.90667C17.0602 3.00694 17.2954 3.16002 17.4919 3.35617L19.6132 5.47749C19.9598 5.81728 20.1709 6.27148 20.2074 6.75544C20.2438 7.2394 20.103 7.7201 19.8112 8.10793C19.2219 8.87634 18.7214 9.70894 18.3192 10.5899C18.1613 10.9381 17.9068 11.2337 17.586 11.4418C17.2651 11.6498 16.8914 11.7615 16.509 11.7637H14.713C13.9493 14.5406 13.9493 17.4721 14.713 20.249H16.509C16.8914 20.2511 17.2651 20.3628 17.586 20.5708C17.9068 20.7789 18.1613 21.0745 18.3192 21.4227C18.7214 22.3037 19.2219 23.1363 19.8112 23.9047C20.1063 24.2966 20.2469 24.7834 20.2065 25.2723C20.1661 25.7612 19.9474 26.2182 19.592 26.5563Z" stroke="black" stroke-width="2" stroke-linecap="round" stroke-linejoin="round"/>
</svg>
